<svg width="184" height="45" viewBox="0 0 184 45" fill="none" xmlns="http://www.w3.org/2000/svg">
                    <g clip-path="url(#clip0)">
                        <path
                            d="M3.22466 38.9095L0 44.9612V11.9871C0 5.35345 5.36149 0 12.0051 0H44.9899C35.6267 2.90948 25.875 9.46552 19.4257 16.9526C12.3159 25.1379 8.31419 30.7629 3.22466 38.9095Z"
                            fill="white" />
                        <path
                            d="M45.0681 0C45.0681 0 30.6931 6.71121 26.3029 16.7974C23.9719 22.1897 23.3891 28.6681 19.1543 32.7414C16.2404 35.5345 12.161 36.5819 8.58673 38.4052C6.25564 39.6078 1.90429 42.4785 0.0394287 45.0388H33.0631C39.7067 45.0388 45.0681 39.6853 45.0681 33.0517V0ZM61.7354 23.5474V15.0129C61.7354 14.819 61.8908 14.6638 62.085 14.6638H67.4854C68.4955 14.6638 69.3502 15.0905 69.3502 16.5259V23.2759C69.3502 24.3233 68.4955 25.1379 67.4854 25.1379H63.2506C62.4347 25.0216 61.7742 24.3621 61.7354 23.5474ZM59.9871 12.0647C59.4043 12.0647 58.9769 12.4914 58.9769 13.0345V35.3793H61.3469C61.5411 35.3793 61.6965 35.2241 61.6965 35.0302V26.7285C62.085 27.2328 62.8621 27.7371 63.8333 27.7371H67.4465C69.9719 27.7371 72.031 25.9526 72.031 23.3147V16.4871C72.031 13.3836 69.9719 12.0647 67.4465 12.0647H59.9871ZM75.9161 12.0647V27.3879C75.9161 27.5819 76.0715 27.7371 76.2658 27.7371H78.6357V12.375C78.6357 12.181 78.4803 12.0647 78.286 12.0647H75.9161ZM75.9161 5.0431V7.60345C75.9161 7.79741 76.0715 7.95259 76.2658 7.95259H78.6357V5.39224C78.6357 5.19828 78.4803 5.0431 78.286 5.0431H75.9161ZM85.3181 18.194V16.4871C85.3181 15.2457 86.134 14.625 87.183 14.625H91.4955C92.7387 14.625 93.3215 15.2069 93.3215 16.4871V18.194C93.3215 18.3879 93.1661 18.5431 92.9718 18.5431H85.6678C85.4347 18.5043 85.3181 18.3491 85.3181 18.194ZM87.183 12.0647C84.6577 12.0647 82.5985 13.6164 82.5985 16.5259V23.1595C82.5985 25.681 84.6188 27.7371 87.183 27.7371H95.3029V25.4871C95.3029 25.2931 95.1475 25.1379 94.9533 25.1379H87.183C86.134 25.1379 85.3181 24.3233 85.3181 23.2759V20.4828C85.5901 20.8707 86.0563 21.0647 86.5614 21.0647H95.1475C95.8857 21.0647 95.9634 20.6379 95.9634 20.0948V16.4871C95.9634 13.5776 93.9431 12.0259 91.3789 12.0259H87.183V12.0647ZM102.257 23.2759V16.5259C102.257 15.4784 103.073 14.6638 104.122 14.6638H108.357C109.134 14.7414 109.794 15.4009 109.872 16.2543V24.7888C109.872 24.9828 109.717 25.0991 109.523 25.0991H104.122C103.073 25.1379 102.257 24.3233 102.257 23.2759ZM110.183 4.22845C109.989 4.22845 109.833 4.38362 109.833 4.57759V13.0733C109.445 12.5302 108.668 12.0647 107.658 12.0647H104.006C101.48 12.0647 99.4989 14.0819 99.4989 16.6422V23.1595C99.4989 25.681 101.519 27.7371 104.083 27.7371H111.543C112.126 27.7371 112.553 27.3103 112.553 26.7285V4.22845H110.183ZM120.556 23.5474V15.0129C120.556 14.819 120.712 14.6638 120.906 14.6638H126.267C127.278 14.6638 128.132 15.0905 128.132 16.5259V23.2759C128.132 24.3233 127.278 25.1379 126.267 25.1379H122.033C121.217 25.0216 120.595 24.3621 120.556 23.5474ZM118.808 12.0647C118.225 12.0647 117.798 12.4914 117.798 13.0345V35.3793H120.168C120.362 35.3793 120.517 35.2241 120.517 35.0302V26.7285C120.906 27.2328 121.683 27.7371 122.654 27.7371H126.267C128.793 27.7371 130.852 25.9526 130.852 23.3147V16.4871C130.852 13.3836 128.793 12.0647 126.267 12.0647H118.808ZM134.737 12.0647V27.3879C134.737 27.5819 134.892 27.7371 135.087 27.7371H137.457V12.375C137.457 12.181 137.301 12.0647 137.107 12.0647H134.737ZM134.737 5.0431V7.60345C134.737 7.79741 134.892 7.95259 135.087 7.95259H137.457V5.39224C137.457 5.19828 137.301 5.0431 137.107 5.0431H134.737ZM144.217 23.5474V15.0129C144.217 14.819 144.372 14.6638 144.566 14.6638H149.967C150.977 14.6638 151.832 15.0905 151.832 16.5259V23.2759C151.832 24.3233 150.977 25.1379 149.967 25.1379H145.732C144.916 25.0216 144.294 24.3621 144.217 23.5474ZM142.507 12.0647C141.925 12.0647 141.497 12.4914 141.497 13.0345V35.3793H143.867C144.061 35.3793 144.217 35.2241 144.217 35.0302V26.7285C144.605 27.2328 145.382 27.7371 146.354 27.7371H149.967C152.492 27.7371 154.551 25.9526 154.551 23.3147V16.4871C154.551 13.3836 152.492 12.0647 149.967 12.0647H142.507ZM161.039 18.194V16.4871C161.039 15.2457 161.855 14.625 162.904 14.625H167.217C168.421 14.625 169.043 15.2069 169.043 16.4871V18.194C169.043 18.3879 168.887 18.5431 168.693 18.5431H161.389C161.156 18.5043 161.039 18.3491 161.039 18.194ZM162.904 12.0647C160.379 12.0647 158.32 13.6164 158.32 16.5259V23.1595C158.32 25.681 160.34 27.7371 162.904 27.7371H171.024V25.4871C171.024 25.2931 170.869 25.1379 170.675 25.1379H162.904C161.855 25.1379 161.039 24.3233 161.039 23.2759V20.4828C161.311 20.8707 161.778 21.0647 162.244 21.0647H170.83C171.568 21.0647 171.646 20.6379 171.646 20.0948V16.4871C171.646 13.5776 169.626 12.0259 167.061 12.0259H162.904V12.0647ZM180.349 12.0647C179.377 12.0647 178.6 12.5302 178.212 13.0733V12.375C178.212 12.181 178.056 12.0647 177.862 12.0647H175.492V27.3879C175.492 27.5819 175.648 27.7371 175.842 27.7371H178.212V16.0991C178.289 15.3621 178.872 14.7026 179.727 14.7026H183.651C183.845 14.7026 184.001 14.5474 184.001 14.3534V12.1034H180.349V12.0647Z"
                            fill="white" />
                    </g>
                    <defs>
                        <clipPath id="clip0">
                            <rect width="184" height="45" fill="white" />
                        </clipPath>
                    </defs>
                </svg>